<svg width="16" height="16" viewBox="0 0 16 16" fill="none" xmlns="http://www.w3.org/2000/svg">
<g id="icon / suggested / circle / +" clip-path="url(#clip0_279_2530)">
<path id="Vector (Stroke)" fill-rule="evenodd" clip-rule="evenodd" d="M8.00002 1.99996C4.68631 1.99996 2.00002 4.68625 2.00002 7.99996C2.00002 11.3137 4.68631 14 8.00002 14C11.3137 14 14 11.3137 14 7.99996C14 4.68625 11.3137 1.99996 8.00002 1.99996ZM0.666687 7.99996C0.666687 3.94987 3.94993 0.666626 8.00002 0.666626C12.0501 0.666626 15.3334 3.94987 15.3334 7.99996C15.3334 12.05 12.0501 15.3333 8.00002 15.3333C3.94993 15.3333 0.666687 12.05 0.666687 7.99996Z" fill="white"/>
<path id="Vector (Stroke)_2" fill-rule="evenodd" clip-rule="evenodd" d="M7.99998 4.66663C8.36817 4.66663 8.66665 4.9651 8.66665 5.33329V10.6666C8.66665 11.0348 8.36817 11.3333 7.99998 11.3333C7.63179 11.3333 7.33331 11.0348 7.33331 10.6666V5.33329C7.33331 4.9651 7.63179 4.66663 7.99998 4.66663Z" fill="white"/>
<path id="Vector (Stroke)_3" fill-rule="evenodd" clip-rule="evenodd" d="M4.66669 8.00004C4.66669 7.63185 4.96516 7.33337 5.33335 7.33337H10.6667C11.0349 7.33337 11.3334 7.63185 11.3334 8.00004C11.3334 8.36823 11.0349 8.66671 10.6667 8.66671H5.33335C4.96516 8.66671 4.66669 8.36823 4.66669 8.00004Z" fill="white"/>
</g>
<defs>
<clipPath id="clip0_279_2530">
<rect width="16" height="16" fill="white"/>
</clipPath>
</defs>
</svg>
